# xmcd
#
# Track frame offsets:
# 150
# 16394
# 29968
# 41897
# 53998
# 67648
# 93822
# 109617
# 123267
# 140895
# 151995
# 173147
#
# Disc length: 2462 seconds
#
#
# Revision: 0
# Processed by: cddbd v1.5.2PL0 Copyright (c) Steve Scherf et al.
# Submitted via: FreeRIP 2.945 
#
DISCID=a0099c0c
DTITLE=Papa George - Being Free...ain't no crime
DYEAR=1900
DGENRE=Blues
TTITLE0=Black jack
TTITLE1=Come On Into My Kitchen
TTITLE2=Ain't No Crime
TTITLE3=Broken Mirror
TTITLE4=Runaway Boogie
TTITLE5=Walking Blues
TTITLE6=The Station
TTITLE7=Aloha Anne
TTITLE8=Win Or Lose
TTITLE9=Merry Christmas
TTITLE10=Nite With You
TTITLE11=Papa's Rag
EXTD=
EXTT0=
EXTT1=
EXTT2=
EXTT3=
EXTT4=
EXTT5=
EXTT6=
EXTT7=
EXTT8=
EXTT9=
EXTT10=
EXTT11=
PLAYORDER=
